<svg width="167" height="207" viewBox="0 0 167 207" fill="none" xmlns="http://www.w3.org/2000/svg">
<path d="M68.3947 123.217H64.799L64.1154 125.268H61.9347L65.6398 115.314H67.5402L71.2658 125.268H69.0851L68.3947 123.217ZM65.3527 121.556H67.841L66.59 117.83L65.3527 121.556ZM71.758 121.515C71.758 120.362 72.0155 119.443 72.5304 118.76C73.05 118.076 73.7586 117.734 74.6564 117.734C75.3765 117.734 75.9712 118.003 76.4406 118.541V114.768H78.423V125.268H76.6388L76.5431 124.481C76.0509 125.097 75.4175 125.404 74.6427 125.404C73.7723 125.404 73.0727 125.062 72.5441 124.379C72.02 123.691 71.758 122.736 71.758 121.515ZM73.7336 121.658C73.7336 122.351 73.8543 122.882 74.0959 123.251C74.3374 123.62 74.6883 123.805 75.1486 123.805C75.7593 123.805 76.1899 123.547 76.4406 123.032V120.113C76.1945 119.598 75.7684 119.341 75.1623 119.341C74.2098 119.341 73.7336 120.113 73.7336 121.658ZM79.6466 121.501C79.6466 120.767 79.7879 120.113 80.0705 119.539C80.353 118.965 80.7586 118.521 81.2873 118.206C81.8205 117.892 82.438 117.734 83.1398 117.734C84.1379 117.734 84.9513 118.04 85.5802 118.65C86.2137 119.261 86.5669 120.09 86.6398 121.139L86.6535 121.645C86.6535 122.779 86.3367 123.691 85.7033 124.379C85.0698 125.062 84.2199 125.404 83.1535 125.404C82.0871 125.404 81.2349 125.062 80.5968 124.379C79.9634 123.695 79.6466 122.766 79.6466 121.59V121.501ZM81.6222 121.645C81.6222 122.346 81.7544 122.884 82.0187 123.258C82.283 123.627 82.6613 123.812 83.1535 123.812C83.632 123.812 84.0057 123.629 84.2746 123.265C84.5435 122.896 84.6779 122.308 84.6779 121.501C84.6779 120.813 84.5435 120.28 84.2746 119.901C84.0057 119.523 83.6274 119.334 83.1398 119.334C82.6567 119.334 82.283 119.523 82.0187 119.901C81.7544 120.275 81.6222 120.856 81.6222 121.645ZM94.5353 121.638C94.5353 122.823 94.2824 123.748 93.7765 124.413C93.2707 125.074 92.5643 125.404 91.6574 125.404C90.8553 125.404 90.215 125.097 89.7365 124.481L89.6476 125.268H87.8703V114.768H89.8459V118.534C90.3016 118.001 90.9009 117.734 91.6437 117.734C92.5461 117.734 93.2524 118.067 93.7629 118.732C94.2778 119.393 94.5353 120.325 94.5353 121.528V121.638ZM92.5597 121.494C92.5597 120.747 92.4412 120.202 92.2043 119.86C91.9673 119.514 91.6141 119.341 91.1447 119.341C90.5158 119.341 90.0828 119.598 89.8459 120.113V123.032C90.0874 123.552 90.5249 123.812 91.1584 123.812C91.7964 123.812 92.2157 123.497 92.4162 122.868C92.5119 122.567 92.5597 122.109 92.5597 121.494ZM99.1632 125.404C98.0786 125.404 97.1945 125.072 96.5109 124.406C95.8319 123.741 95.4923 122.854 95.4923 121.747V121.556C95.4923 120.813 95.6359 120.15 95.923 119.566C96.2101 118.979 96.6157 118.527 97.1398 118.213C97.6685 117.894 98.27 117.734 98.9445 117.734C99.9562 117.734 100.751 118.053 101.33 118.691C101.914 119.329 102.205 120.234 102.205 121.405V122.212H97.4953C97.5591 122.695 97.7505 123.082 98.0695 123.374C98.3931 123.666 98.8009 123.812 99.2931 123.812C100.054 123.812 100.649 123.536 101.077 122.984L102.048 124.071C101.752 124.491 101.351 124.819 100.845 125.056C100.339 125.288 99.7785 125.404 99.1632 125.404ZM98.9377 119.334C98.5457 119.334 98.2267 119.466 97.9806 119.73C97.7391 119.995 97.5841 120.373 97.5158 120.865H100.264V120.708C100.255 120.271 100.136 119.933 99.9084 119.696C99.6805 119.455 99.3569 119.334 98.9377 119.334ZM56.4113 141.268H54.3605V131.314H56.4113V141.268ZM60.2736 141.268H58.2912V130.768H60.2736V141.268ZM63.9923 141.268H62.0099V130.768H63.9923V141.268ZM70.0558 140.516C69.5682 141.108 68.8937 141.404 68.0324 141.404C67.2394 141.404 66.6333 141.176 66.214 140.721C65.7993 140.265 65.5874 139.597 65.5783 138.718V133.871H67.5539V138.649C67.5539 139.42 67.9048 139.805 68.6066 139.805C69.2765 139.805 69.7368 139.572 69.9875 139.107V133.871H71.9699V141.268H70.1105L70.0558 140.516ZM77.466 139.224C77.466 138.982 77.3452 138.793 77.1037 138.656C76.8667 138.515 76.4839 138.39 75.9552 138.28C74.1961 137.911 73.3166 137.164 73.3166 136.038C73.3166 135.382 73.5877 134.835 74.13 134.397C74.6769 133.955 75.3901 133.734 76.2697 133.734C77.2085 133.734 77.9582 133.955 78.5187 134.397C79.0838 134.84 79.3664 135.414 79.3664 136.12H77.3908C77.3908 135.838 77.2996 135.605 77.1173 135.423C76.9351 135.236 76.6502 135.143 76.2629 135.143C75.9302 135.143 75.6727 135.218 75.4904 135.368C75.3081 135.519 75.217 135.71 75.217 135.942C75.217 136.161 75.3195 136.339 75.5246 136.476C75.7342 136.608 76.0851 136.724 76.5773 136.824C77.0695 136.92 77.4842 137.029 77.8214 137.152C78.8651 137.535 79.3869 138.198 79.3869 139.142C79.3869 139.816 79.0975 140.363 78.5187 140.782C77.9399 141.197 77.1925 141.404 76.2765 141.404C75.6567 141.404 75.1053 141.295 74.6222 141.076C74.1437 140.853 73.7677 140.55 73.4943 140.167C73.2209 139.78 73.0841 139.363 73.0841 138.916H74.9572C74.9754 139.267 75.1053 139.536 75.3468 139.723C75.5884 139.91 75.9119 140.003 76.3175 140.003C76.6958 140.003 76.9806 139.932 77.172 139.791C77.368 139.645 77.466 139.456 77.466 139.224ZM83.0304 132.053V133.871H84.2951V135.32H83.0304V139.012C83.0304 139.285 83.0828 139.481 83.1877 139.6C83.2925 139.718 83.493 139.777 83.7892 139.777C84.008 139.777 84.2017 139.761 84.3703 139.729V141.227C83.9829 141.345 83.5841 141.404 83.174 141.404C81.7886 141.404 81.0822 140.705 81.0548 139.306V135.32H79.9748V133.871H81.0548V132.053H83.0304ZM89.5519 135.724C89.283 135.687 89.0461 135.669 88.841 135.669C88.0936 135.669 87.6037 135.922 87.3713 136.428V141.268H85.3957V133.871H87.2619L87.3166 134.753C87.7131 134.074 88.2622 133.734 88.964 133.734C89.1828 133.734 89.3879 133.764 89.5793 133.823L89.5519 135.724ZM94.59 141.268C94.4989 141.09 94.4328 140.869 94.3918 140.604C93.9132 141.138 93.2912 141.404 92.5256 141.404C91.8009 141.404 91.1994 141.195 90.7209 140.775C90.2469 140.356 90.0099 139.827 90.0099 139.189C90.0099 138.406 90.2993 137.804 90.8781 137.385C91.4614 136.965 92.3022 136.754 93.4006 136.749H94.3097V136.325C94.3097 135.983 94.2209 135.71 94.0431 135.505C93.87 135.3 93.5942 135.197 93.216 135.197C92.8833 135.197 92.6213 135.277 92.4298 135.437C92.243 135.596 92.1496 135.815 92.1496 136.093H90.174C90.174 135.664 90.3061 135.268 90.5705 134.903C90.8348 134.539 91.2085 134.254 91.6916 134.049C92.1746 133.839 92.717 133.734 93.3185 133.734C94.23 133.734 94.9523 133.965 95.4855 134.425C96.0233 134.881 96.2922 135.523 96.2922 136.353V139.559C96.2967 140.26 96.3947 140.791 96.5861 141.151V141.268H94.59ZM92.9562 139.894C93.2479 139.894 93.5168 139.83 93.7629 139.702C94.0089 139.57 94.1912 139.395 94.3097 139.176V137.904H93.5714C92.5825 137.904 92.0561 138.246 91.9923 138.93L91.9855 139.046C91.9855 139.292 92.0721 139.495 92.2453 139.654C92.4185 139.814 92.6554 139.894 92.9562 139.894ZM100.175 132.053V133.871H101.44V135.32H100.175V139.012C100.175 139.285 100.227 139.481 100.332 139.6C100.437 139.718 100.638 139.777 100.934 139.777C101.153 139.777 101.346 139.761 101.515 139.729V141.227C101.127 141.345 100.729 141.404 100.319 141.404C98.9331 141.404 98.2267 140.705 98.1994 139.306V135.32H97.1193V133.871H98.1994V132.053H100.175ZM102.028 137.501C102.028 136.767 102.169 136.113 102.451 135.539C102.734 134.965 103.139 134.521 103.668 134.206C104.201 133.892 104.819 133.734 105.521 133.734C106.519 133.734 107.332 134.04 107.961 134.65C108.595 135.261 108.948 136.09 109.021 137.139L109.034 137.645C109.034 138.779 108.718 139.691 108.084 140.379C107.451 141.062 106.601 141.404 105.534 141.404C104.468 141.404 103.616 141.062 102.978 140.379C102.344 139.695 102.028 138.766 102.028 137.59V137.501ZM104.003 137.645C104.003 138.346 104.135 138.884 104.4 139.258C104.664 139.627 105.042 139.812 105.534 139.812C106.013 139.812 106.387 139.629 106.655 139.265C106.924 138.896 107.059 138.308 107.059 137.501C107.059 136.813 106.924 136.28 106.655 135.901C106.387 135.523 106.008 135.334 105.521 135.334C105.038 135.334 104.664 135.523 104.4 135.901C104.135 136.275 104.003 136.856 104.003 137.645ZM114.407 135.724C114.139 135.687 113.902 135.669 113.696 135.669C112.949 135.669 112.459 135.922 112.227 136.428V141.268H110.251V133.871H112.117L112.172 134.753C112.569 134.074 113.118 133.734 113.819 133.734C114.038 133.734 114.243 133.764 114.435 133.823L114.407 135.724Z" fill="#828282"/>
<path d="M43.0034 4.45312H124.764V85.458H43.0034V4.45312Z" fill="url(#paint0_radial)"/>
<path d="M43.0034 4.45367H124.764V85.4586H43.0034V4.45367ZM39.2878 89.2423H128.497V0.669922H39.2878V89.2423ZM97.7188 32.2496C97.7188 31.9404 97.826 31.7949 98.1654 31.7949H104.007C104.31 31.7949 104.453 31.904 104.453 32.2496V62.1194C104.453 62.4286 104.382 62.5742 104.007 62.5742H98.2368C97.8617 62.5742 97.7545 62.3923 97.7545 62.083V32.2496H97.7188ZM97.3079 23.6453C97.3079 21.2258 98.9871 19.7888 101.095 19.7888C103.364 19.7888 104.882 21.335 104.882 23.6453C104.882 26.1374 103.292 27.5018 101.024 27.5018C98.8799 27.52 97.3079 26.1556 97.3079 23.6453ZM80.5879 44.6923C79.5518 40.4902 77.0866 31.3401 76.1578 26.9015H76.0863C75.3003 31.3219 73.3353 38.8166 71.7812 44.6923H80.5879ZM70.2629 50.8227L67.3333 62.174C67.2618 62.4832 67.1546 62.556 66.7795 62.556H61.3133C60.9382 62.556 60.8667 62.4468 60.9382 61.9921L71.4954 24.3729C71.6741 23.6998 71.7991 23.0813 71.8706 21.2258C71.8706 20.953 71.9777 20.8438 72.1742 20.8438H79.9805C80.2485 20.8438 80.3556 20.9166 80.4271 21.2258L92.2526 62.0648C92.3241 62.3741 92.2526 62.556 91.9489 62.556H85.7861C85.4824 62.556 85.3038 62.4832 85.2323 62.2104L82.1777 50.8227H70.2629Z" fill="#FF7F18"/>
<path d="M12.5037 183.86C12.8036 182.939 14.1055 182.939 14.4053 183.86L16.1564 189.234C16.2906 189.646 16.6743 189.924 17.1072 189.924H22.768C23.7374 189.924 24.1397 191.165 23.3547 191.734L18.7798 195.049C18.4284 195.303 18.2813 195.756 18.4158 196.168L20.1643 201.535C20.4644 202.456 19.4111 203.223 18.6268 202.654L14.0413 199.332C13.6912 199.078 13.2179 199.078 12.8678 199.332L8.28228 202.654C7.49802 203.223 6.44473 202.456 6.74475 201.535L8.49333 196.168C8.62778 195.756 8.4807 195.303 8.12924 195.049L3.55437 191.734C2.76936 191.165 3.17169 189.924 4.14108 189.924H9.80184C10.2348 189.924 10.6185 189.646 10.7526 189.234L12.5037 183.86Z" fill="#070707"/>
<path d="M47.6009 183.86C47.9008 182.939 49.2027 182.939 49.5025 183.86L51.2536 189.234C51.3877 189.646 51.7715 189.924 52.2044 189.924H57.8652C58.8346 189.924 59.2369 191.165 58.4519 191.734L53.877 195.049C53.5256 195.303 53.3785 195.756 53.5129 196.168L55.2615 201.535C55.5615 202.456 54.5082 203.223 53.724 202.654L49.1384 199.332C48.7884 199.078 48.315 199.078 47.965 199.332L43.3794 202.654C42.5952 203.223 41.5419 202.456 41.8419 201.535L43.5905 196.168C43.7249 195.756 43.5779 195.303 43.2264 195.049L38.6515 191.734C37.8665 191.165 38.2689 189.924 39.2383 189.924H44.899C45.3319 189.924 45.7157 189.646 45.8498 189.234L47.6009 183.86Z" fill="#070707"/>
<path d="M82.6981 183.86C82.9979 182.939 84.2998 182.939 84.5997 183.86L86.3508 189.234C86.4849 189.646 86.8687 189.924 87.3016 189.924H92.9623C93.9317 189.924 94.3341 191.165 93.5491 191.734L88.9742 195.049C88.6227 195.303 88.4756 195.756 88.6101 196.168L90.3587 201.535C90.6587 202.456 89.6054 203.223 88.8211 202.654L84.2356 199.332C83.8856 199.078 83.4122 199.078 83.0622 199.332L78.4766 202.654C77.6924 203.223 76.6391 202.456 76.9391 201.535L78.6877 196.168C78.8221 195.756 78.675 195.303 78.3236 195.049L73.7487 191.734C72.9637 191.165 73.366 189.924 74.3354 189.924H79.9962C80.4291 189.924 80.8129 189.646 80.947 189.234L82.6981 183.86Z" fill="#070707"/>
<path d="M117.795 183.86C118.095 182.939 119.397 182.939 119.697 183.86L121.448 189.234C121.582 189.646 121.966 189.924 122.399 189.924H128.06C129.029 189.924 129.431 191.165 128.646 191.734L124.071 195.049C123.72 195.303 123.573 195.756 123.707 196.168L125.456 201.535C125.756 202.456 124.703 203.223 123.918 202.654L119.333 199.332C118.983 199.078 118.509 199.078 118.159 199.332L113.574 202.654C112.79 203.223 111.736 202.456 112.036 201.535L113.785 196.168C113.919 195.756 113.772 195.303 113.421 195.049L108.846 191.734C108.061 191.165 108.463 189.924 109.433 189.924H115.093C115.526 189.924 115.91 189.646 116.044 189.234L117.795 183.86Z" fill="#E5E5E5"/>
<path d="M152.892 183.86C153.192 182.939 154.494 182.939 154.794 183.86L156.545 189.234C156.679 189.646 157.063 189.924 157.496 189.924H163.157C164.126 189.924 164.528 191.165 163.743 191.734L159.169 195.049C158.817 195.303 158.67 195.756 158.804 196.168L160.553 201.535C160.853 202.456 159.8 203.223 159.015 202.654L154.43 199.332C154.08 199.078 153.607 199.078 153.256 199.332L148.671 202.654C147.887 203.223 146.833 202.456 147.133 201.535L148.882 196.168C149.016 195.756 148.869 195.303 148.518 195.049L143.943 191.734C143.158 191.165 143.56 189.924 144.53 189.924H150.191C150.623 189.924 151.007 189.646 151.141 189.234L152.892 183.86Z" fill="#E5E5E5"/>
<defs>
<radialGradient id="paint0_radial" cx="0" cy="0" r="1" gradientUnits="userSpaceOnUse" gradientTransform="translate(69.958 22.6304) scale(62.1406 61.2673)">
<stop stop-color="#423325" stop-opacity="0.98"/>
<stop offset="1" stop-color="#1C0A00"/>
</radialGradient>
</defs>
</svg>
