<svg width="168" height="207" viewBox="0 0 168 207" fill="none" xmlns="http://www.w3.org/2000/svg">
<path d="M42.9341 4.42578H124.599V85.2804H42.9341V4.42578Z" fill="url(#paint0_radial)"/>
<path d="M42.9341 4.42575H124.599V85.2803H42.9341V4.42575ZM39.2212 89.0596H128.294V0.646484H39.2212V89.0596ZM99.2876 36.9311C96.3602 36.9311 95.3605 38.4392 95.3605 39.6929C95.3605 41.0556 96.021 42.0004 99.9659 44.0717C105.785 46.9425 107.606 49.7043 107.606 53.7379C107.606 59.7884 103.072 63.0408 96.9492 63.0408C93.7183 63.0408 90.9337 62.3685 89.345 61.4237C89.0772 61.3146 89.0415 61.1148 89.0415 60.8241V55.246C89.0415 54.8645 89.22 54.7554 89.4878 54.9371C91.8262 56.4815 94.5037 57.172 96.9492 57.172C99.8767 57.172 101.108 55.9183 101.108 54.2285C101.108 52.8658 100.252 51.6666 96.503 49.6861C91.2371 47.1242 89.0415 44.526 89.0415 40.1653C89.0415 35.2958 92.7901 31.244 99.2876 31.244C102.483 31.244 104.714 31.7346 105.928 32.2979C106.231 32.4796 106.303 32.7884 106.303 33.061V38.2393C106.303 38.5482 106.124 38.7299 105.749 38.6209C104.107 37.567 101.697 36.9311 99.2876 36.9311ZM67.3712 41.419C68.228 41.4917 68.8885 41.4917 70.3701 41.4917C74.7077 41.4917 78.7954 39.9472 78.7954 33.9331C78.7954 29.1364 75.868 26.7198 70.9234 26.7198C69.4418 26.7198 68.0317 26.7925 67.3533 26.8288L67.3712 41.419ZM60.7487 21.3598C60.7487 21.0872 61.2664 20.9055 61.5698 20.9055C63.9439 20.7965 67.4783 20.7239 71.1376 20.7239C81.4194 20.7239 85.4358 26.4654 85.4358 33.7878C85.4358 43.3813 78.5991 47.5058 70.2094 47.5058C68.7992 47.5058 68.3173 47.4331 67.3176 47.4331V61.9324C67.3176 62.2413 67.2105 62.3867 66.8714 62.3867H61.195C60.8915 62.3867 60.7487 62.2776 60.7487 61.9324V21.3598Z" fill="#31C5F0"/>
<path d="M69.5682 124.215H65.9725L65.2889 126.266H63.1083L66.8134 116.312H68.7137L72.4393 126.266H70.2587L69.5682 124.215ZM66.5262 122.554H69.0145L67.7635 118.828L66.5262 122.554ZM72.9315 122.513C72.9315 121.36 73.189 120.441 73.704 119.758C74.2235 119.074 74.9322 118.732 75.83 118.732C76.55 118.732 77.1447 119.001 77.6141 119.539V115.766H79.5966V126.266H77.8124L77.7167 125.479C77.2245 126.095 76.591 126.402 75.8163 126.402C74.9458 126.402 74.2463 126.061 73.7177 125.377C73.1936 124.689 72.9315 123.734 72.9315 122.513ZM74.9071 122.656C74.9071 123.349 75.0279 123.88 75.2694 124.249C75.5109 124.618 75.8619 124.803 76.3221 124.803C76.9328 124.803 77.3635 124.545 77.6141 124.03V121.111C77.368 120.596 76.9419 120.339 76.3358 120.339C75.3833 120.339 74.9071 121.111 74.9071 122.656ZM80.8202 122.499C80.8202 121.765 80.9615 121.111 81.244 120.537C81.5266 119.963 81.9322 119.519 82.4608 119.204C82.994 118.89 83.6115 118.732 84.3134 118.732C85.3114 118.732 86.1249 119.038 86.7538 119.648C87.3872 120.259 87.7404 121.089 87.8134 122.137L87.827 122.643C87.827 123.777 87.5103 124.689 86.8768 125.377C86.2434 126.061 85.3934 126.402 84.327 126.402C83.2606 126.402 82.4084 126.061 81.7704 125.377C81.1369 124.693 80.8202 123.764 80.8202 122.588V122.499ZM82.7958 122.643C82.7958 123.344 82.9279 123.882 83.1923 124.256C83.4566 124.625 83.8348 124.81 84.327 124.81C84.8055 124.81 85.1792 124.627 85.4481 124.263C85.717 123.894 85.8514 123.306 85.8514 122.499C85.8514 121.811 85.717 121.278 85.4481 120.899C85.1792 120.521 84.801 120.332 84.3134 120.332C83.8303 120.332 83.4566 120.521 83.1923 120.899C82.9279 121.273 82.7958 121.854 82.7958 122.643ZM95.7089 122.636C95.7089 123.821 95.4559 124.746 94.9501 125.411C94.4442 126.072 93.7378 126.402 92.8309 126.402C92.0288 126.402 91.3885 126.095 90.91 125.479L90.8212 126.266H89.0438V115.766H91.0194V119.532C91.4751 118.999 92.0744 118.732 92.8173 118.732C93.7196 118.732 94.426 119.065 94.9364 119.73C95.4514 120.391 95.7089 121.323 95.7089 122.526V122.636ZM93.7333 122.492C93.7333 121.745 93.6148 121.2 93.3778 120.858C93.1408 120.512 92.7876 120.339 92.3182 120.339C91.6893 120.339 91.2564 120.596 91.0194 121.111V124.03C91.2609 124.55 91.6984 124.81 92.3319 124.81C92.9699 124.81 93.3892 124.495 93.5897 123.866C93.6854 123.565 93.7333 123.107 93.7333 122.492ZM100.337 126.402C99.2522 126.402 98.368 126.07 97.6844 125.404C97.0054 124.739 96.6659 123.853 96.6659 122.745V122.554C96.6659 121.811 96.8094 121.148 97.0966 120.564C97.3837 119.977 97.7893 119.525 98.3134 119.211C98.842 118.892 99.4436 118.732 100.118 118.732C101.13 118.732 101.925 119.051 102.504 119.689C103.087 120.327 103.379 121.232 103.379 122.403V123.21H98.6688C98.7326 123.693 98.924 124.08 99.243 124.372C99.5666 124.664 99.9745 124.81 100.467 124.81C101.228 124.81 101.822 124.534 102.251 123.982L103.222 125.069C102.925 125.489 102.524 125.817 102.018 126.054C101.513 126.286 100.952 126.402 100.337 126.402ZM100.111 120.332C99.7193 120.332 99.4003 120.464 99.1542 120.729C98.9126 120.993 98.7577 121.371 98.6893 121.863H101.437V121.706C101.428 121.269 101.31 120.931 101.082 120.694C100.854 120.453 100.53 120.332 100.111 120.332ZM52.3075 138.759V142.266H50.2567V132.312H54.1395C54.8869 132.312 55.5432 132.449 56.1083 132.723C56.6779 132.996 57.1154 133.386 57.4208 133.892C57.7261 134.393 57.8788 134.965 57.8788 135.607C57.8788 136.583 57.5438 137.353 56.8739 137.918C56.2085 138.479 55.2857 138.759 54.1053 138.759H52.3075ZM52.3075 137.098H54.1395C54.6818 137.098 55.0943 136.97 55.3768 136.715C55.6639 136.46 55.8075 136.095 55.8075 135.621C55.8075 135.133 55.6639 134.739 55.3768 134.438C55.0897 134.138 54.6932 133.983 54.1874 133.974H52.3075V137.098ZM61.0917 135.676C61.6158 135.047 62.2743 134.732 63.0673 134.732C64.6714 134.732 65.4849 135.664 65.5077 137.528V142.266H63.5321V137.583C63.5321 137.159 63.441 136.847 63.2587 136.646C63.0764 136.441 62.7733 136.339 62.3495 136.339C61.7707 136.339 61.3514 136.562 61.0917 137.009V142.266H59.1161V131.766H61.0917V135.676ZM66.6903 138.499C66.6903 137.765 66.8316 137.111 67.1141 136.537C67.3967 135.963 67.8023 135.519 68.3309 135.204C68.8641 134.89 69.4816 134.732 70.1835 134.732C71.1815 134.732 71.995 135.038 72.6239 135.648C73.2574 136.259 73.6106 137.089 73.6835 138.137L73.6971 138.643C73.6971 139.777 73.3804 140.689 72.7469 141.377C72.1135 142.061 71.2635 142.402 70.1971 142.402C69.1307 142.402 68.2785 142.061 67.6405 141.377C67.007 140.693 66.6903 139.764 66.6903 138.588V138.499ZM68.6659 138.643C68.6659 139.344 68.7981 139.882 69.0624 140.256C69.3267 140.625 69.705 140.81 70.1971 140.81C70.6757 140.81 71.0494 140.627 71.3182 140.263C71.5871 139.894 71.7216 139.306 71.7216 138.499C71.7216 137.811 71.5871 137.278 71.3182 136.899C71.0494 136.521 70.6711 136.332 70.1835 136.332C69.7004 136.332 69.3267 136.521 69.0624 136.899C68.7981 137.273 68.6659 137.854 68.6659 138.643ZM77.2792 133.051V134.869H78.5438V136.318H77.2792V140.01C77.2792 140.283 77.3316 140.479 77.4364 140.598C77.5412 140.716 77.7417 140.775 78.038 140.775C78.2567 140.775 78.4504 140.759 78.619 140.728V142.225C78.2316 142.343 77.8329 142.402 77.4227 142.402C76.0373 142.402 75.3309 141.703 75.3036 140.304V136.318H74.2235V134.869H75.3036V133.051H77.2792ZM79.1317 138.499C79.1317 137.765 79.273 137.111 79.5555 136.537C79.8381 135.963 80.2437 135.519 80.7723 135.204C81.3055 134.89 81.9231 134.732 82.6249 134.732C83.6229 134.732 84.4364 135.038 85.0653 135.648C85.6988 136.259 86.052 137.089 86.1249 138.137L86.1385 138.643C86.1385 139.777 85.8218 140.689 85.1884 141.377C84.5549 142.061 83.705 142.402 82.6385 142.402C81.5721 142.402 80.7199 142.061 80.0819 141.377C79.4484 140.693 79.1317 139.764 79.1317 138.588V138.499ZM81.1073 138.643C81.1073 139.344 81.2395 139.882 81.5038 140.256C81.7681 140.625 82.1464 140.81 82.6385 140.81C83.1171 140.81 83.4908 140.627 83.7596 140.263C84.0285 139.894 84.163 139.306 84.163 138.499C84.163 137.811 84.0285 137.278 83.7596 136.899C83.4908 136.521 83.1125 136.332 82.6249 136.332C82.1418 136.332 81.7681 136.521 81.5038 136.899C81.2395 137.273 81.1073 137.854 81.1073 138.643ZM91.3612 140.222C91.3612 139.98 91.2404 139.791 90.9989 139.654C90.7619 139.513 90.3791 139.388 89.8505 139.278C88.0913 138.909 87.2118 138.162 87.2118 137.036C87.2118 136.38 87.483 135.833 88.0253 135.396C88.5721 134.953 89.2854 134.732 90.1649 134.732C91.1037 134.732 91.8534 134.953 92.4139 135.396C92.979 135.838 93.2616 136.412 93.2616 137.118H91.286C91.286 136.836 91.1949 136.603 91.0126 136.421C90.8303 136.234 90.5455 136.141 90.1581 136.141C89.8254 136.141 89.5679 136.216 89.3856 136.366C89.2033 136.517 89.1122 136.708 89.1122 136.94C89.1122 137.159 89.2147 137.337 89.4198 137.474C89.6294 137.606 89.9803 137.722 90.4725 137.822C90.9647 137.918 91.3794 138.027 91.7167 138.15C92.7603 138.533 93.2821 139.196 93.2821 140.14C93.2821 140.814 92.9927 141.361 92.4139 141.78C91.8352 142.195 91.0878 142.402 90.1718 142.402C89.552 142.402 89.0005 142.293 88.5175 142.074C88.0389 141.851 87.663 141.548 87.3895 141.165C87.1161 140.778 86.9794 140.361 86.9794 139.914H88.8524C88.8706 140.265 89.0005 140.534 89.2421 140.721C89.4836 140.908 89.8072 141.001 90.2128 141.001C90.591 141.001 90.8759 140.93 91.0673 140.789C91.2632 140.643 91.3612 140.454 91.3612 140.222ZM96.4882 135.676C97.0122 135.047 97.6708 134.732 98.4637 134.732C100.068 134.732 100.881 135.664 100.904 137.528V142.266H98.9286V137.583C98.9286 137.159 98.8374 136.847 98.6552 136.646C98.4729 136.441 98.1698 136.339 97.746 136.339C97.1672 136.339 96.7479 136.562 96.4882 137.009V142.266H94.5126V131.766H96.4882V135.676ZM102.087 138.499C102.087 137.765 102.228 137.111 102.511 136.537C102.793 135.963 103.199 135.519 103.727 135.204C104.261 134.89 104.878 134.732 105.58 134.732C106.578 134.732 107.391 135.038 108.02 135.648C108.654 136.259 109.007 137.089 109.08 138.137L109.094 138.643C109.094 139.777 108.777 140.689 108.143 141.377C107.51 142.061 106.66 142.402 105.594 142.402C104.527 142.402 103.675 142.061 103.037 141.377C102.404 140.693 102.087 139.764 102.087 138.588V138.499ZM104.062 138.643C104.062 139.344 104.195 139.882 104.459 140.256C104.723 140.625 105.101 140.81 105.594 140.81C106.072 140.81 106.446 140.627 106.715 140.263C106.984 139.894 107.118 139.306 107.118 138.499C107.118 137.811 106.984 137.278 106.715 136.899C106.446 136.521 106.068 136.332 105.58 136.332C105.097 136.332 104.723 136.521 104.459 136.899C104.195 137.273 104.062 137.854 104.062 138.643ZM116.969 138.636C116.969 139.775 116.709 140.689 116.189 141.377C115.674 142.061 114.977 142.402 114.098 142.402C113.35 142.402 112.746 142.143 112.286 141.623V145.109H110.31V134.869H112.142L112.211 135.594C112.689 135.02 113.314 134.732 114.084 134.732C114.995 134.732 115.704 135.07 116.21 135.744C116.716 136.419 116.969 137.348 116.969 138.533V138.636ZM114.993 138.492C114.993 137.804 114.87 137.273 114.624 136.899C114.382 136.526 114.029 136.339 113.564 136.339C112.945 136.339 112.518 136.576 112.286 137.05V140.078C112.528 140.566 112.958 140.81 113.578 140.81C114.521 140.81 114.993 140.037 114.993 138.492Z" fill="#828282"/>
<path d="M12.7933 183.86C13.0931 182.939 14.3951 182.939 14.6949 183.86L16.446 189.234C16.5801 189.646 16.9639 189.924 17.3968 189.924H23.0576C24.0269 189.924 24.4293 191.165 23.6443 191.734L19.0694 195.049C18.7179 195.303 18.5709 195.756 18.7053 196.168L20.4539 201.535C20.7539 202.456 19.7006 203.223 18.9164 202.654L14.3308 199.332C13.9808 199.078 13.5074 199.078 13.1574 199.332L8.57183 202.654C7.78757 203.223 6.73428 202.456 7.0343 201.535L8.78288 196.168C8.91733 195.756 8.77025 195.303 8.41879 195.049L3.84392 191.734C3.05891 191.165 3.46124 189.924 4.43064 189.924H10.0914C10.5243 189.924 10.9081 189.646 11.0422 189.234L12.7933 183.86Z" fill="#070707"/>
<path d="M47.8902 183.86C48.1901 182.939 49.492 182.939 49.7918 183.86L51.5429 189.234C51.677 189.646 52.0608 189.924 52.4937 189.924H58.1545C59.1239 189.924 59.5262 191.165 58.7412 191.734L54.1663 195.049C53.8149 195.303 53.6678 195.756 53.8022 196.168L55.5508 201.535C55.8508 202.456 54.7975 203.223 54.0133 202.654L49.4277 199.332C49.0777 199.078 48.6043 199.078 48.2543 199.332L43.6688 202.654C42.8845 203.223 41.8312 202.456 42.1312 201.535L43.8798 196.168C44.0143 195.756 43.8672 195.303 43.5157 195.049L38.9408 191.734C38.1558 191.165 38.5582 189.924 39.5276 189.924H45.1883C45.6212 189.924 46.005 189.646 46.1391 189.234L47.8902 183.86Z" fill="#070707"/>
<path d="M82.9874 183.86C83.2872 182.939 84.5891 182.939 84.889 183.86L86.6401 189.234C86.7742 189.646 87.158 189.924 87.5909 189.924H93.2516C94.221 189.924 94.6234 191.165 93.8384 191.734L89.2635 195.049C88.912 195.303 88.7649 195.756 88.8994 196.168L90.648 201.535C90.948 202.456 89.8947 203.223 89.1105 202.654L84.5249 199.332C84.1749 199.078 83.7015 199.078 83.3515 199.332L78.7659 202.654C77.9817 203.223 76.9284 202.456 77.2284 201.535L78.977 196.168C79.1114 195.756 78.9643 195.303 78.6129 195.049L74.038 191.734C73.253 191.165 73.6553 189.924 74.6247 189.924H80.2855C80.7184 189.924 81.1022 189.646 81.2363 189.234L82.9874 183.86Z" fill="#070707"/>
<path d="M118.085 183.86C118.384 182.939 119.686 182.939 119.986 183.86L121.737 189.234C121.871 189.646 122.255 189.924 122.688 189.924H128.349C129.318 189.924 129.721 191.165 128.936 191.734L124.361 195.049C124.009 195.303 123.862 195.756 123.997 196.168L125.745 201.535C126.045 202.456 124.992 203.223 124.208 202.654L119.622 199.332C119.272 199.078 118.799 199.078 118.449 199.332L113.863 202.654C113.079 203.223 112.026 202.456 112.326 201.535L114.074 196.168C114.209 195.756 114.062 195.303 113.71 195.049L109.135 191.734C108.35 191.165 108.753 189.924 109.722 189.924H115.383C115.816 189.924 116.199 189.646 116.333 189.234L118.085 183.86Z" fill="#070707"/>
<path d="M153.182 183.86C153.482 182.939 154.783 182.939 155.083 183.86L156.834 189.234C156.969 189.646 157.352 189.924 157.785 189.924H163.446C164.415 189.924 164.818 191.165 164.033 191.734L159.458 195.049C159.106 195.303 158.959 195.756 159.094 196.168L160.842 201.535C161.142 202.456 160.089 203.223 159.305 202.654L154.719 199.332C154.369 199.078 153.896 199.078 153.546 199.332L148.96 202.654C148.176 203.223 147.123 202.456 147.423 201.535L149.171 196.168C149.306 195.756 149.159 195.303 148.807 195.049L144.232 191.734C143.447 191.165 143.85 189.924 144.819 189.924H150.48C150.913 189.924 151.297 189.646 151.431 189.234L153.182 183.86Z" fill="#E5E5E5"/>
<defs>
<radialGradient id="paint0_radial" cx="0" cy="0" r="1" gradientUnits="userSpaceOnUse" gradientTransform="translate(69.8385 22.5656) scale(62.0565 61.1565)">
<stop stop-color="#34364E" stop-opacity="0.98"/>
<stop offset="1" stop-color="#0C0824"/>
</radialGradient>
</defs>
</svg>
