<svg width="168" height="206" viewBox="0 0 168 206" fill="none" xmlns="http://www.w3.org/2000/svg">
<path d="M73.4788 122.175H69.5413V126.242H67.4905V116.289H73.971V117.95H69.5413V120.521H73.4788V122.175ZM77.1155 126.242H75.1331V118.846H77.1155V126.242ZM75.0169 116.932C75.0169 116.635 75.1149 116.392 75.3108 116.2C75.5113 116.009 75.7825 115.913 76.1243 115.913C76.4615 115.913 76.7304 116.009 76.9309 116.2C77.1315 116.392 77.2317 116.635 77.2317 116.932C77.2317 117.232 77.1292 117.479 76.9241 117.67C76.7236 117.861 76.457 117.957 76.1243 117.957C75.7916 117.957 75.5227 117.861 75.3177 117.67C75.1171 117.479 75.0169 117.232 75.0169 116.932ZM78.4622 122.489C78.4622 121.354 78.7311 120.441 79.2688 119.748C79.8112 119.055 80.5403 118.709 81.4563 118.709C82.2675 118.709 82.8987 118.987 83.3499 119.543L83.4319 118.846H85.2229V125.996C85.2229 126.643 85.0748 127.206 84.7786 127.685C84.4869 128.163 84.0745 128.528 83.5413 128.778C83.0081 129.029 82.3837 129.154 81.6683 129.154C81.1259 129.154 80.5973 129.045 80.0823 128.826C79.5673 128.612 79.1777 128.334 78.9134 127.992L79.7884 126.789C80.2806 127.34 80.8776 127.616 81.5794 127.616C82.1035 127.616 82.5113 127.475 82.803 127.192C83.0947 126.914 83.2405 126.518 83.2405 126.003V125.606C82.7848 126.121 82.1855 126.379 81.4427 126.379C80.554 126.379 79.8339 126.033 79.2825 125.34C78.7356 124.643 78.4622 123.72 78.4622 122.571V122.489ZM80.4378 122.633C80.4378 123.303 80.5722 123.829 80.8411 124.212C81.11 124.59 81.4791 124.779 81.9485 124.779C82.5501 124.779 82.9808 124.554 83.2405 124.103V120.992C82.9762 120.541 82.5501 120.315 81.9622 120.315C81.4882 120.315 81.1145 120.509 80.8411 120.896C80.5722 121.284 80.4378 121.863 80.4378 122.633ZM88.5999 118.846L88.6614 119.673C89.1855 119.03 89.8942 118.709 90.7874 118.709C91.7399 118.709 92.3938 119.085 92.7493 119.837C93.2688 119.085 94.0094 118.709 94.971 118.709C95.7731 118.709 96.3701 118.944 96.762 119.413C97.1539 119.878 97.3499 120.58 97.3499 121.519V126.242H95.3675V121.525C95.3675 121.106 95.2854 120.801 95.1214 120.609C94.9573 120.413 94.6679 120.315 94.2532 120.315C93.6608 120.315 93.2506 120.598 93.0227 121.163L93.0296 126.242H91.054V121.532C91.054 121.104 90.9697 120.794 90.8011 120.603C90.6324 120.411 90.3453 120.315 89.9397 120.315C89.3792 120.315 88.9736 120.548 88.7229 121.013V126.242H86.7474V118.846H88.5999ZM103.16 126.242C103.069 126.064 103.003 125.843 102.962 125.579C102.484 126.112 101.862 126.379 101.096 126.379C100.371 126.379 99.7698 126.169 99.2913 125.75C98.8173 125.331 98.5804 124.802 98.5804 124.164C98.5804 123.38 98.8697 122.779 99.4485 122.359C100.032 121.94 100.873 121.728 101.971 121.724H102.88V121.3C102.88 120.958 102.791 120.685 102.614 120.479C102.44 120.274 102.165 120.172 101.786 120.172C101.454 120.172 101.192 120.252 101 120.411C100.813 120.571 100.72 120.789 100.72 121.067H98.7444C98.7444 120.639 98.8766 120.243 99.1409 119.878C99.4052 119.513 99.7789 119.229 100.262 119.023C100.745 118.814 101.287 118.709 101.889 118.709C102.8 118.709 103.523 118.939 104.056 119.399C104.594 119.855 104.863 120.498 104.863 121.327V124.533C104.867 125.235 104.965 125.766 105.157 126.126V126.242H103.16ZM101.527 124.868C101.818 124.868 102.087 124.804 102.333 124.677C102.579 124.545 102.762 124.369 102.88 124.15V122.879H102.142C101.153 122.879 100.627 123.221 100.563 123.904L100.556 124.021C100.556 124.267 100.643 124.469 100.816 124.629C100.989 124.788 101.226 124.868 101.527 124.868Z" fill="#828282"/>
<g clip-path="url(#clip0)">
<path d="M72.0513 89.6612C80.0898 89.6612 86.61 83.0214 86.61 74.8355V60.0098H72.0513C64.0128 60.0098 57.4927 66.6495 57.4927 74.8355C57.4927 83.0214 64.0128 89.6612 72.0513 89.6612Z" fill="#0ACF83"/>
<path d="M57.4927 45.1655C57.4927 36.9796 64.0128 30.3398 72.0513 30.3398H86.61V60.0094H72.0513C64.0128 59.9912 57.4927 53.3515 57.4927 45.1655Z" fill="#A259FF"/>
<path d="M57.4927 15.4956C57.4927 7.30965 64.0128 0.669922 72.0513 0.669922H86.61V30.3395H72.0513C64.0128 30.3395 57.4927 23.6816 57.4927 15.4956Z" fill="#F24E1E"/>
<path d="M86.6279 0.669922H101.187C109.225 0.669922 115.745 7.30965 115.745 15.4956C115.745 23.6816 109.225 30.3213 101.187 30.3213H86.6279V0.669922Z" fill="#FF7262"/>
<path d="M115.745 45.1655C115.745 53.3515 109.225 59.9913 101.187 59.9913C93.1481 59.9913 86.6279 53.3515 86.6279 45.1655C86.6279 36.9796 93.1481 30.3398 101.187 30.3398C109.225 30.3398 115.745 36.9796 115.745 45.1655Z" fill="#1ABCFE"/>
</g>
<path d="M12.9251 182.86C13.225 181.939 14.5269 181.939 14.8267 182.86L16.5778 188.234C16.7119 188.646 17.0957 188.924 17.5286 188.924H23.1894C24.1588 188.924 24.5611 190.165 23.7761 190.734L19.2012 194.049C18.8498 194.303 18.7027 194.756 18.8371 195.168L20.5857 200.535C20.8857 201.456 19.8325 202.223 19.0482 201.654L14.4626 198.332C14.1126 198.078 13.6392 198.078 13.2892 198.332L8.70366 201.654C7.91941 202.223 6.86612 201.456 7.16614 200.535L8.91471 195.168C9.04917 194.756 8.90209 194.303 8.55063 194.049L3.97575 190.734C3.19075 190.165 3.59308 188.924 4.56247 188.924H10.2232C10.6562 188.924 11.0399 188.646 11.174 188.234L12.9251 182.86Z" fill="#070707"/>
<path d="M48.022 182.86C48.3219 181.939 49.6238 181.939 49.9237 182.86L51.6748 188.234C51.8089 188.646 52.1926 188.924 52.6256 188.924H58.2863C59.2557 188.924 59.658 190.165 58.873 190.734L54.2982 194.049C53.9467 194.303 53.7996 194.756 53.9341 195.168L55.6826 200.535C55.9827 201.456 54.9294 202.223 54.1451 201.654L49.5596 198.332C49.2095 198.078 48.7362 198.078 48.3861 198.332L43.8006 201.654C43.0163 202.223 41.963 201.456 42.2631 200.535L44.0116 195.168C44.1461 194.756 43.999 194.303 43.6475 194.049L39.0727 190.734C38.2877 190.165 38.69 188.924 39.6594 188.924H45.3202C45.7531 188.924 46.1368 188.646 46.271 188.234L48.022 182.86Z" fill="#070707"/>
<path d="M83.1192 182.86C83.4191 181.939 84.721 181.939 85.0208 182.86L86.7719 188.234C86.906 188.646 87.2898 188.924 87.7227 188.924H93.3835C94.3529 188.924 94.7552 190.165 93.9702 190.734L89.3953 194.049C89.0439 194.303 88.8968 194.756 89.0312 195.168L90.7798 200.535C91.0798 201.456 90.0265 202.223 89.2423 201.654L84.6567 198.332C84.3067 198.078 83.8333 198.078 83.4833 198.332L78.8978 201.654C78.1135 202.223 77.0602 201.456 77.3602 200.535L79.1088 195.168C79.2433 194.756 79.0962 194.303 78.7447 194.049L74.1698 190.734C73.3848 190.165 73.7872 188.924 74.7566 188.924H80.4173C80.8502 188.924 81.234 188.646 81.3681 188.234L83.1192 182.86Z" fill="#070707"/>
<path d="M118.216 182.86C118.516 181.939 119.818 181.939 120.118 182.86L121.869 188.234C122.003 188.646 122.387 188.924 122.82 188.924H128.481C129.45 188.924 129.852 190.165 129.067 190.734L124.492 194.049C124.141 194.303 123.994 194.756 124.128 195.168L125.877 200.535C126.177 201.456 125.124 202.223 124.339 201.654L119.754 198.332C119.404 198.078 118.931 198.078 118.58 198.332L113.995 201.654C113.211 202.223 112.157 201.456 112.457 200.535L114.206 195.168C114.34 194.756 114.193 194.303 113.842 194.049L109.267 190.734C108.482 190.165 108.884 188.924 109.854 188.924H115.514C115.947 188.924 116.331 188.646 116.465 188.234L118.216 182.86Z" fill="#070707"/>
<path d="M153.314 182.86C153.613 181.939 154.915 181.939 155.215 182.86L156.966 188.234C157.1 188.646 157.484 188.924 157.917 188.924H163.578C164.547 188.924 164.95 190.165 164.165 190.734L159.59 194.049C159.238 194.303 159.091 194.756 159.226 195.168L160.974 200.535C161.274 201.456 160.221 202.223 159.437 201.654L154.851 198.332C154.501 198.078 154.028 198.078 153.678 198.332L149.092 201.654C148.308 202.223 147.255 201.456 147.555 200.535L149.303 195.168C149.438 194.756 149.291 194.303 148.939 194.049L144.364 190.734C143.579 190.165 143.982 188.924 144.951 188.924H150.612C151.045 188.924 151.428 188.646 151.562 188.234L153.314 182.86Z" fill="#E5E5E5"/>
<defs>
<clipPath id="clip0">
<rect width="58.2524" height="88.9906" fill="white" transform="translate(57.4927 0.669922)"/>
</clipPath>
</defs>
</svg>
