<svg width="167" height="207" viewBox="0 0 167 207" fill="none" xmlns="http://www.w3.org/2000/svg">
<path d="M68.461 123.217H64.8653L64.1817 125.268H62.0011L65.7061 115.314H67.6065L71.3321 125.268H69.1515L68.461 123.217ZM65.419 121.556H67.9073L66.6563 117.83L65.419 121.556ZM71.8243 121.515C71.8243 120.362 72.0818 119.443 72.5968 118.76C73.1163 118.076 73.825 117.734 74.7227 117.734C75.4428 117.734 76.0375 118.003 76.5069 118.541V114.768H78.4893V125.268H76.7052L76.6095 124.481C76.1173 125.097 75.4838 125.404 74.7091 125.404C73.8386 125.404 73.1391 125.062 72.6104 124.379C72.0864 123.691 71.8243 122.736 71.8243 121.515ZM73.7999 121.658C73.7999 122.351 73.9207 122.882 74.1622 123.251C74.4037 123.62 74.7546 123.805 75.2149 123.805C75.8256 123.805 76.2563 123.547 76.5069 123.032V120.113C76.2608 119.598 75.8347 119.341 75.2286 119.341C74.2761 119.341 73.7999 120.113 73.7999 121.658ZM79.713 121.501C79.713 120.767 79.8543 120.113 80.1368 119.539C80.4194 118.965 80.825 118.521 81.3536 118.206C81.8868 117.892 82.5043 117.734 83.2061 117.734C84.2042 117.734 85.0177 118.04 85.6466 118.65C86.28 119.261 86.6332 120.09 86.7061 121.139L86.7198 121.645C86.7198 122.779 86.4031 123.691 85.7696 124.379C85.1362 125.062 84.2862 125.404 83.2198 125.404C82.1534 125.404 81.3012 125.062 80.6632 124.379C80.0297 123.695 79.713 122.766 79.713 121.59V121.501ZM81.6886 121.645C81.6886 122.346 81.8207 122.884 82.085 123.258C82.3494 123.627 82.7276 123.812 83.2198 123.812C83.6983 123.812 84.072 123.629 84.3409 123.265C84.6098 122.896 84.7442 122.308 84.7442 121.501C84.7442 120.813 84.6098 120.28 84.3409 119.901C84.072 119.523 83.6938 119.334 83.2061 119.334C82.7231 119.334 82.3494 119.523 82.085 119.901C81.8207 120.275 81.6886 120.856 81.6886 121.645ZM94.6017 121.638C94.6017 122.823 94.3487 123.748 93.8429 124.413C93.337 125.074 92.6306 125.404 91.7237 125.404C90.9216 125.404 90.2813 125.097 89.8028 124.481L89.714 125.268H87.9366V114.768H89.9122V118.534C90.3679 118.001 90.9672 117.734 91.71 117.734C92.6124 117.734 93.3188 118.067 93.8292 118.732C94.3442 119.393 94.6017 120.325 94.6017 121.528V121.638ZM92.6261 121.494C92.6261 120.747 92.5076 120.202 92.2706 119.86C92.0336 119.514 91.6804 119.341 91.211 119.341C90.5821 119.341 90.1492 119.598 89.9122 120.113V123.032C90.1537 123.552 90.5912 123.812 91.2247 123.812C91.8627 123.812 92.282 123.497 92.4825 122.868C92.5782 122.567 92.6261 122.109 92.6261 121.494ZM99.2296 125.404C98.1449 125.404 97.2608 125.072 96.5772 124.406C95.8982 123.741 95.5587 122.854 95.5587 121.747V121.556C95.5587 120.813 95.7022 120.15 95.9893 119.566C96.2765 118.979 96.6821 118.527 97.2061 118.213C97.7348 117.894 98.3364 117.734 99.0108 117.734C100.023 117.734 100.818 118.053 101.397 118.691C101.98 119.329 102.272 120.234 102.272 121.405V122.212H97.5616C97.6254 122.695 97.8168 123.082 98.1358 123.374C98.4594 123.666 98.8673 123.812 99.3595 123.812C100.121 123.812 100.715 123.536 101.144 122.984L102.114 124.071C101.818 124.491 101.417 124.819 100.911 125.056C100.405 125.288 99.8448 125.404 99.2296 125.404ZM99.004 119.334C98.6121 119.334 98.2931 119.466 98.047 119.73C97.8054 119.995 97.6505 120.373 97.5821 120.865H100.33V120.708C100.321 120.271 100.203 119.933 99.9747 119.696C99.7468 119.455 99.4233 119.334 99.004 119.334ZM74.6202 139.217H71.0245L70.3409 141.268H68.1602L71.8653 131.314H73.7657L77.4913 141.268H75.3106L74.6202 139.217ZM71.5782 137.556H74.0665L72.8155 133.83L71.5782 137.556ZM78.8311 141.268V135.32H77.7306V133.871H78.8311V133.242C78.8311 132.413 79.0681 131.77 79.5421 131.314C80.0206 130.854 80.6882 130.624 81.545 130.624C81.8184 130.624 82.1534 130.67 82.5499 130.761L82.5294 132.292C82.3653 132.251 82.1648 132.23 81.9278 132.23C81.185 132.23 80.8136 132.579 80.8136 133.276V133.871H82.2833V135.32H80.8136V141.268H78.8311ZM85.6739 132.053V133.871H86.9386V135.32H85.6739V139.012C85.6739 139.285 85.7263 139.481 85.8311 139.6C85.936 139.718 86.1365 139.777 86.4327 139.777C86.6515 139.777 86.8451 139.761 87.0138 139.729V141.227C86.6264 141.345 86.2276 141.404 85.8175 141.404C84.4321 141.404 83.7257 140.705 83.6983 139.306V135.32H82.6183V133.871H83.6983V132.053H85.6739ZM91.4434 141.404C90.3588 141.404 89.4747 141.072 88.7911 140.406C88.1121 139.741 87.7725 138.854 87.7725 137.747V137.556C87.7725 136.813 87.9161 136.15 88.2032 135.566C88.4903 134.979 88.8959 134.527 89.42 134.213C89.9487 133.894 90.5502 133.734 91.2247 133.734C92.2364 133.734 93.0317 134.053 93.6104 134.691C94.1938 135.329 94.4854 136.234 94.4854 137.405V138.212H89.7755C89.8393 138.695 90.0307 139.082 90.3497 139.374C90.6733 139.666 91.0811 139.812 91.5733 139.812C92.3344 139.812 92.9291 139.536 93.3575 138.984L94.3282 140.071C94.032 140.491 93.6309 140.819 93.1251 141.056C92.6192 141.288 92.0587 141.404 91.4434 141.404ZM91.2179 135.334C90.8259 135.334 90.5069 135.466 90.2608 135.73C90.0193 135.995 89.8643 136.373 89.796 136.865H92.544V136.708C92.5349 136.271 92.4164 135.933 92.1886 135.696C91.9607 135.455 91.6371 135.334 91.2179 135.334ZM99.7696 135.724C99.5007 135.687 99.2638 135.669 99.0587 135.669C98.3113 135.669 97.8214 135.922 97.589 136.428V141.268H95.6134V133.871H97.4796L97.5343 134.753C97.9308 134.074 98.4799 133.734 99.1817 133.734C99.4005 133.734 99.6056 133.764 99.797 133.823L99.7696 135.724ZM68.7003 153.954H64.7628V156.62H69.3839V158.268H62.712V148.314H69.3702V149.976H64.7628V152.348H68.7003V153.954ZM70.8741 158.268V152.32H69.7735V150.871H70.8741V150.242C70.8741 149.413 71.1111 148.77 71.585 148.314C72.0636 147.854 72.7312 147.624 73.588 147.624C73.8614 147.624 74.1964 147.67 74.5929 147.761L74.5724 149.292C74.4083 149.251 74.2078 149.23 73.9708 149.23C73.228 149.23 72.8565 149.579 72.8565 150.276V150.871H74.3263V152.32H72.8565V158.268H70.8741ZM75.8917 158.268V152.32H74.7911V150.871H75.8917V150.242C75.8917 149.413 76.1287 148.77 76.6026 148.314C77.0811 147.854 77.7488 147.624 78.6056 147.624C78.879 147.624 79.214 147.67 79.6104 147.761L79.5899 149.292C79.4259 149.251 79.2253 149.23 78.9884 149.23C78.2455 149.23 77.8741 149.579 77.8741 150.276V150.871H79.3438V152.32H77.8741V158.268H75.8917ZM83.6095 158.404C82.5248 158.404 81.6407 158.072 80.9571 157.406C80.2781 156.741 79.9386 155.854 79.9386 154.747V154.556C79.9386 153.813 80.0821 153.15 80.3692 152.566C80.6563 151.979 81.0619 151.527 81.586 151.213C82.1147 150.894 82.7162 150.734 83.3907 150.734C84.4024 150.734 85.1977 151.053 85.7765 151.691C86.3598 152.329 86.6515 153.234 86.6515 154.405V155.212H81.9415C82.0053 155.695 82.1967 156.082 82.5157 156.374C82.8393 156.666 83.2472 156.812 83.7393 156.812C84.5004 156.812 85.0951 156.536 85.5235 155.984L86.4942 157.071C86.198 157.491 85.797 157.819 85.2911 158.056C84.7852 158.288 84.2247 158.404 83.6095 158.404ZM83.3839 152.334C82.9919 152.334 82.6729 152.466 82.4268 152.73C82.1853 152.995 82.0304 153.373 81.962 153.865H84.71V153.708C84.7009 153.271 84.5824 152.933 84.3546 152.696C84.1267 152.455 83.8031 152.334 83.3839 152.334ZM90.8556 156.812C91.2201 156.812 91.5164 156.711 91.7442 156.511C91.9721 156.31 92.0906 156.044 92.0997 155.711H93.9522C93.9477 156.212 93.811 156.673 93.5421 157.092C93.2732 157.507 92.9041 157.83 92.4347 158.062C91.9698 158.29 91.4548 158.404 90.8897 158.404C89.8324 158.404 88.9985 158.069 88.3878 157.399C87.7771 156.725 87.4718 155.795 87.4718 154.61V154.48C87.4718 153.341 87.7748 152.432 88.3809 151.753C88.9871 151.074 89.8188 150.734 90.8761 150.734C91.8012 150.734 92.5418 150.999 93.0977 151.527C93.6583 152.051 93.9431 152.751 93.9522 153.626H92.0997C92.0906 153.243 91.9721 152.933 91.7442 152.696C91.5164 152.455 91.2156 152.334 90.8419 152.334C90.3816 152.334 90.033 152.503 89.796 152.84C89.5636 153.173 89.4474 153.715 89.4474 154.467V154.672C89.4474 155.433 89.5636 155.98 89.796 156.312C90.0284 156.645 90.3816 156.812 90.8556 156.812ZM97.4454 149.053V150.871H98.71V152.32H97.4454V156.012C97.4454 156.285 97.4978 156.481 97.6026 156.6C97.7074 156.718 97.908 156.777 98.2042 156.777C98.4229 156.777 98.6166 156.761 98.7852 156.729V158.227C98.3979 158.345 97.9991 158.404 97.589 158.404C96.2035 158.404 95.4972 157.705 95.4698 156.306V152.32H94.3897V150.871H95.4698V149.053H97.4454ZM103.816 156.224C103.816 155.982 103.696 155.793 103.454 155.656C103.217 155.515 102.834 155.39 102.306 155.28C100.547 154.911 99.6671 154.164 99.6671 153.038C99.6671 152.382 99.9382 151.835 100.481 151.397C101.027 150.955 101.741 150.734 102.62 150.734C103.559 150.734 104.309 150.955 104.869 151.397C105.434 151.84 105.717 152.414 105.717 153.12H103.741C103.741 152.838 103.65 152.605 103.468 152.423C103.286 152.236 103.001 152.143 102.613 152.143C102.281 152.143 102.023 152.218 101.841 152.368C101.659 152.519 101.567 152.71 101.567 152.942C101.567 153.161 101.67 153.339 101.875 153.476C102.085 153.608 102.436 153.724 102.928 153.824C103.42 153.92 103.835 154.029 104.172 154.152C105.216 154.535 105.737 155.198 105.737 156.142C105.737 156.816 105.448 157.363 104.869 157.782C104.29 158.197 103.543 158.404 102.627 158.404C102.007 158.404 101.456 158.295 100.973 158.076C100.494 157.853 100.118 157.55 99.8448 157.167C99.5714 156.78 99.4347 156.363 99.4347 155.916H101.308C101.326 156.267 101.456 156.536 101.697 156.723C101.939 156.91 102.262 157.003 102.668 157.003C103.046 157.003 103.331 156.932 103.523 156.791C103.719 156.645 103.816 156.456 103.816 156.224Z" fill="#828282"/>
<path d="M43.0703 4.45312H124.831V85.458H43.0703V4.45312Z" fill="url(#paint0_radial)"/>
<path d="M43.0703 4.45367H124.831V85.4586H43.0703V4.45367ZM39.3547 89.2423H128.564V0.669922H39.3547V89.2423ZM102.466 43.3644C104.359 43.3644 105.038 43.3644 105.217 43.2916C105.217 43.0188 105.288 42.8369 105.288 42.6549C105.288 40.6175 104.324 36.8338 100.465 36.8338C96.8926 36.8338 95.3742 40.0172 94.9991 43.3826H102.466V43.3644ZM94.9276 48.5489C94.9991 53.6606 97.3749 57.0987 103.038 57.0987C105.235 57.0987 107.128 56.7894 109.093 55.9344C109.361 55.8253 109.54 55.8617 109.54 56.2073V60.937C109.54 61.319 109.433 61.5009 109.165 61.701C107.2 62.6833 104.735 63.1381 101.698 63.1381C91.8908 63.1381 88.211 55.7525 88.211 47.5483C88.211 38.6165 92.7483 31.3037 100.733 31.3037C108.843 31.3037 111.666 38.2345 111.666 43.8737C111.666 45.6929 111.558 47.1663 111.362 47.894C111.29 48.2032 111.183 48.3124 110.88 48.3851C110.129 48.4943 107.95 48.658 104.681 48.658H94.9455V48.5489H94.9276ZM74.9921 44.6923C73.956 40.4902 71.4194 31.3401 70.4905 26.9015H70.4191C69.6331 31.3219 67.5967 38.8166 66.0783 44.6923H74.9921ZM64.5599 50.8227L61.6303 62.1376C61.5589 62.4468 61.4517 62.556 61.0766 62.556H55.5925C55.2174 62.556 55.1459 62.4468 55.2174 61.9921L65.7746 24.4093C65.9533 23.7362 66.0783 23.1905 66.1498 21.2986C66.1498 21.0257 66.2569 20.9166 66.4534 20.9166H74.2597C74.5277 20.9166 74.6348 20.9894 74.7063 21.2986L86.514 62.0648C86.5854 62.3741 86.514 62.556 86.2103 62.556H80.0832C79.7795 62.556 79.6008 62.4468 79.5294 62.174L76.4748 50.8227H64.5599Z" fill="#D8A1FF"/>
<path d="M12.2142 183.86C12.514 182.939 13.816 182.939 14.1158 183.86L15.8669 189.234C16.001 189.646 16.3848 189.924 16.8177 189.924H22.4785C23.4478 189.924 23.8502 191.165 23.0652 191.734L18.4903 195.049C18.1388 195.303 17.9918 195.756 18.1262 196.168L19.8748 201.535C20.1748 202.456 19.1215 203.223 18.3373 202.654L13.7517 199.332C13.4017 199.078 12.9283 199.078 12.5783 199.332L7.99273 202.654C7.20847 203.223 6.15518 202.456 6.4552 201.535L8.20377 196.168C8.33823 195.756 8.19115 195.303 7.83969 195.049L3.26482 191.734C2.47981 191.165 2.88214 189.924 3.85153 189.924H9.51229C9.94522 189.924 10.329 189.646 10.4631 189.234L12.2142 183.86Z" fill="#070707"/>
<path d="M47.3116 183.86C47.6114 182.939 48.9134 182.939 49.2132 183.86L50.9643 189.234C51.0984 189.646 51.4822 189.924 51.9151 189.924H57.5759C58.5453 189.924 58.9476 191.165 58.1626 191.734L53.5877 195.049C53.2362 195.303 53.0892 195.756 53.2236 196.168L54.9722 201.535C55.2722 202.456 54.2189 203.223 53.4347 202.654L48.8491 199.332C48.4991 199.078 48.0257 199.078 47.6757 199.332L43.0901 202.654C42.3059 203.223 41.2526 202.456 41.5526 201.535L43.3012 196.168C43.4356 195.756 43.2886 195.303 42.9371 195.049L38.3622 191.734C37.5772 191.165 37.9796 189.924 38.9489 189.924H44.6097C45.0426 189.924 45.4264 189.646 45.5605 189.234L47.3116 183.86Z" fill="#070707"/>
<path d="M82.4088 183.86C82.7086 182.939 84.0105 182.939 84.3104 183.86L86.0615 189.234C86.1956 189.646 86.5793 189.924 87.0123 189.924H92.673C93.6424 189.924 94.0448 191.165 93.2598 191.734L88.6849 195.049C88.3334 195.303 88.1863 195.756 88.3208 196.168L90.0694 201.535C90.3694 202.456 89.3161 203.223 88.5318 202.654L83.9463 199.332C83.5963 199.078 83.1229 199.078 82.7729 199.332L78.1873 202.654C77.403 203.223 76.3498 202.456 76.6498 201.535L78.3984 196.168C78.5328 195.756 78.3857 195.303 78.0343 195.049L73.4594 191.734C72.6744 191.165 73.0767 189.924 74.0461 189.924H79.7069C80.1398 189.924 80.5236 189.646 80.6577 189.234L82.4088 183.86Z" fill="#070707"/>
<path d="M117.506 183.86C117.806 182.939 119.108 182.939 119.408 183.86L121.159 189.234C121.293 189.646 121.677 189.924 122.109 189.924H127.77C128.74 189.924 129.142 191.165 128.357 191.734L123.782 195.049C123.431 195.303 123.284 195.756 123.418 196.168L125.167 201.535C125.467 202.456 124.413 203.223 123.629 202.654L119.043 199.332C118.693 199.078 118.22 199.078 117.87 199.332L113.284 202.654C112.5 203.223 111.447 202.456 111.747 201.535L113.496 196.168C113.63 195.756 113.483 195.303 113.131 195.049L108.557 191.734C107.772 191.165 108.174 189.924 109.143 189.924H114.804C115.237 189.924 115.621 189.646 115.755 189.234L117.506 183.86Z" fill="#070707"/>
<path d="M152.603 183.86C152.903 182.939 154.205 182.939 154.504 183.86L156.256 189.234C156.39 189.646 156.773 189.924 157.206 189.924H162.867C163.837 189.924 164.239 191.165 163.454 191.734L158.879 195.049C158.528 195.303 158.38 195.756 158.515 196.168L160.263 201.535C160.563 202.456 159.51 203.223 158.726 202.654L154.14 199.332C153.79 199.078 153.317 199.078 152.967 199.332L148.381 202.654C147.597 203.223 146.544 202.456 146.844 201.535L148.592 196.168C148.727 195.756 148.58 195.303 148.228 195.049L143.653 191.734C142.868 191.165 143.271 189.924 144.24 189.924H149.901C150.334 189.924 150.718 189.646 150.852 189.234L152.603 183.86Z" fill="#E5E5E5"/>
<defs>
<radialGradient id="paint0_radial" cx="0" cy="0" r="1" gradientUnits="userSpaceOnUse" gradientTransform="translate(70.0228 22.6143) scale(62.1407 61.2673)">
<stop stop-color="#442F55" stop-opacity="0.98"/>
<stop offset="1" stop-color="#12002C"/>
</radialGradient>
</defs>
</svg>
